HIERARCHY
ROOT hip
{
	OFFSET 0.000000 0.000000 0.000000
	CHANNELS 6 Xposition Yposition Zposition Zrotation Yrotation Xrotation 
	JOINT lhipjoint
	{
		OFFSET 0.000000 0.000000 0.000000
		CHANNELS 3 Zrotation Yrotation Xrotation
		JOINT lfemur
		{
			OFFSET 1.363060 -1.794630 0.839290
			CHANNELS 3 Zrotation Yrotation Xrotation
			JOINT ltibia
			{
				OFFSET 2.448110 -6.726130 0.000000
				CHANNELS 3 Zrotation Yrotation Xrotation
				JOINT lfoot
				{
					OFFSET 2.562200 -7.039590 0.000000
					CHANNELS 3 Zrotation Yrotation Xrotation
					JOINT ltoes
					{
						OFFSET 0.157640 -0.433110 2.322550
						CHANNELS 3 Zrotation Yrotation Xrotation
						End Site
						{
							OFFSET 0.000000 0.000000 0.000000
						}
					}
				}
			}
		}
	}
	JOINT rhipjoint
	{
		OFFSET 0.000000 0.000000 0.000000
		CHANNELS 3 Zrotation Yrotation Xrotation
		JOINT rfemur
		{
			OFFSET -1.305520 -1.794630 0.839290
			CHANNELS 3 Zrotation Yrotation Xrotation
			JOINT rtibia
			{
				OFFSET -2.542530 -6.985550 0.000000
				CHANNELS 3 Zrotation Yrotation Xrotation
				JOINT rfoot
				{
					OFFSET -2.568260 -7.056230 0.000000
					CHANNELS 3 Zrotation Yrotation Xrotation
					JOINT rtoes
					{
						OFFSET -0.164730 -0.452590 2.363150
						CHANNELS 3 Zrotation Yrotation Xrotation
						End Site
						{
							OFFSET 0.000000 0.000000 0.000000
						}
					}
				}
			}
		}
	}
	JOINT lowerback
	{
		OFFSET 0.000000 0.000000 0.000000
		CHANNELS 3 Zrotation Yrotation Xrotation
		JOINT upperback
		{
			OFFSET 0.028270 2.035590 -0.193380
			CHANNELS 3 Zrotation Yrotation Xrotation
			JOINT thorax
			{
				OFFSET 0.056720 2.048850 -0.042750
				CHANNELS 3 Zrotation Yrotation Xrotation
				JOINT lowerneck
				{
					OFFSET 0.000000 0.000000 0.000000
					CHANNELS 3 Zrotation Yrotation Xrotation
					JOINT upperneck
					{
						OFFSET -0.054170 1.746240 0.172020
						CHANNELS 3 Zrotation Yrotation Xrotation
						JOINT head
						{
							OFFSET 0.104070 1.761360 -0.123970
							CHANNELS 3 Zrotation Yrotation Xrotation
							End Site
							{
								OFFSET 0.000000 0.000000 0.000000
							}
						}
					}
				}
				JOINT lclavicle
				{
					OFFSET 0.000000 0.000000 0.000000
					CHANNELS 3 Zrotation Yrotation Xrotation
					JOINT lhumerus
					{
						OFFSET 3.362410 1.200890 -0.311210
						CHANNELS 3 Zrotation Yrotation Xrotation
						JOINT lradius
						{
							OFFSET 4.983000 -0.000000 -0.000000
							CHANNELS 3 Zrotation Yrotation Xrotation
							JOINT lwrist
							{
								OFFSET 3.483560 -0.000000 -0.000000
								CHANNELS 3 Zrotation Yrotation Xrotation
								JOINT lhand
								{
									OFFSET 0.000000 0.000000 0.000000
									CHANNELS 3 Zrotation Yrotation Xrotation
									JOINT lfingers
									{
										OFFSET 0.715260 -0.000000 -0.000000
										CHANNELS 3 Zrotation Yrotation Xrotation
										End Site
										{
											OFFSET 0.000000 0.000000 0.000000
										}
									}
								}
								JOINT lthumb
								{
									OFFSET 0.000000 0.000000 0.000000
									CHANNELS 3 Zrotation Yrotation Xrotation
									End Site
									{
										OFFSET 0.000000 0.000000 0.000000
									}
								}
							}
						}
					}
				}
				JOINT rclavicle
				{
					OFFSET 0.000000 0.000000 0.000000
					CHANNELS 3 Zrotation Yrotation Xrotation
					JOINT rhumerus
					{
						OFFSET -3.136600 1.374050 -0.404650
						CHANNELS 3 Zrotation Yrotation Xrotation
						JOINT rradius
						{
							OFFSET -5.241900 -0.000000 -0.000000
							CHANNELS 3 Zrotation Yrotation Xrotation
							JOINT rwrist
							{
								OFFSET -3.444170 -0.000000 -0.000000
								CHANNELS 3 Zrotation Yrotation Xrotation
								JOINT rhand
								{
									OFFSET 0.000000 0.000000 0.000000
									CHANNELS 3 Zrotation Yrotation Xrotation
									JOINT rfingers
									{
										OFFSET -0.622530 -0.000000 -0.000000
										CHANNELS 3 Zrotation Yrotation Xrotation
										End Site
										{
											OFFSET 0.000000 0.000000 0.000000
										}
									}
								}
								JOINT rthumb
								{
									OFFSET 0.000000 0.000000 0.000000
									CHANNELS 3 Zrotation Yrotation Xrotation
									End Site
									{
										OFFSET 0.000000 0.000000 0.000000
									}
								}
							}
						}
					}
				}
			}
		}
	}
}
MOTION
Frames: 12
Frame Time: 0.008333
1.110142 16.134459 0.119318 -161.943895 -27.352374 137.589356 -6.272965 -5.338086 -3.393463 -3.154165 -3.397537 34.622229 2.718642 14.749133 33.014889 0.303438 -16.356322 -11.154864 0.022100 0.959700 2.637900 9.697550 0.556488 1.771827 -19.565671 7.991285 -55.877398 -13.116493 -15.188307 69.551336 -0.706979 11.826579 -3.282152 -2.257300 9.382700 -26.999900 -2.370475 2.495135 21.880844 0.934691 -1.527742 0.976466 -4.930847 -2.096471 16.447264 -8.544912 -1.069442 0.351084 20.895840 -9.787531 23.974403 5.990600 -4.793000 3.734400 -7.501591 -6.135465 3.270150 -13.931468 -57.667929 22.316033 50.489986 -57.960052 -25.781309 0.090254 0.990972 37.092659 60.799559 -20.488945 -34.273200 -7.125000 0.000000 0.000000 18.864500 -8.092100 -22.502100 8.650708 3.195985 4.147898 74.013623 -36.820580 32.438001 -15.289706 36.274223 -4.133967 -0.530814 -1.466996 -1.076448 -19.016398 18.167179 -6.449200 7.125000 0.000000 0.000000 6.365300 -9.319700 5.284100 
1.124027 16.134727 0.112868 -161.805101 -27.528330 137.715739 -6.271364 -5.317772 -3.392158 -3.520866 -3.961486 34.557918 2.763320 14.799408 33.192583 0.361381 -15.929034 -11.697358 0.018700 0.882700 2.426100 9.688274 0.574770 1.785618 -19.234616 7.782917 -56.010053 -13.758794 -15.424082 71.772807 -0.777107 11.166480 -4.523883 -2.330000 9.522000 -27.442400 -2.581653 2.256432 21.767168 0.987169 -1.796664 0.955664 -4.666376 -2.295148 16.480782 -8.592893 -1.263923 -0.156677 20.540053 -9.762905 23.686396 5.884400 -4.747200 3.766300 -7.473180 -6.089705 3.077223 -14.858294 -57.491001 22.318348 51.188616 -58.176811 -26.327097 0.104817 1.001320 36.830519 60.950039 -20.435725 -34.431200 -7.125000 0.000000 0.000000 18.939700 -8.201100 -22.632700 8.655292 3.169725 4.214243 73.446538 -35.965864 32.893627 -15.133070 36.083765 -4.023638 -0.479820 -1.432611 -0.689371 -17.623372 17.429839 -5.728000 7.125000 0.000000 0.000000 7.187800 -10.305700 5.833200 
1.136030 16.135713 0.112510 -161.653766 -27.640293 137.874007 -6.266513 -5.299361 -3.388842 -3.716370 -4.423214 34.368796 2.808141 14.855746 33.388580 0.403159 -15.639648 -12.125382 0.019800 0.907700 2.494800 9.664683 0.583209 1.800467 -18.768227 7.604314 -56.146487 -14.350786 -15.611953 73.764750 -0.836513 10.486906 -5.698087 -2.448500 9.743700 -28.150700 -2.680598 2.013400 21.698892 1.042523 -2.060001 0.922610 -4.438607 -2.471375 16.430274 -8.608003 -1.448783 -0.630753 20.209380 -9.752378 23.432697 5.781400 -4.710400 3.808900 -7.440066 -6.050530 2.864760 -15.925141 -57.279964 22.493448 51.887030 -58.362444 -26.864996 0.122244 1.014197 36.533703 60.860304 -20.258012 -34.178200 -7.125000 0.000000 0.000000 18.922700 -7.951400 -22.539800 8.660215 3.162782 4.282376 72.955051 -35.174446 33.130496 -15.099155 36.002418 -3.959108 -0.422839 -1.410666 -0.337006 -16.245783 16.576416 -5.028600 7.125000 0.000000 0.000000 8.010600 -11.372500 6.337600 
1.146152 16.137773 0.118243 -161.537748 -27.674955 138.084394 -6.256325 -5.278199 -3.382833 -3.831614 -4.784164 34.100843 2.850231 14.911359 33.580962 0.444291 -15.379439 -12.566240 0.016800 0.835900 2.297500 9.625374 0.581927 1.815061 -18.202526 7.500401 -56.288796 -14.891851 -15.755982 75.537742 -0.877679 9.814764 -6.640707 -2.574100 9.971300 -28.884000 -2.706836 1.787946 21.665395 1.098208 -2.291140 0.878810 -4.229594 -2.619808 16.301844 -8.573235 -1.625505 -1.035202 19.890041 -9.747003 23.174798 5.673500 -4.679800 3.838400 -7.399305 -6.018948 2.639348 -17.089155 -57.038533 22.817848 52.567325 -58.514089 -27.381065 0.141707 1.029150 36.269645 60.621794 -19.933238 -33.591200 -7.125000 0.000000 0.000000 18.869600 -7.381300 -22.307400 8.663229 3.173324 4.353067 72.556335 -34.421246 33.124436 -15.135941 35.982178 -3.925877 -0.364488 -1.396329 0.003857 -14.929345 15.685587 -4.387100 7.125000 0.000000 0.000000 8.811200 -12.439700 6.788900 
1.155648 16.139654 0.127022 -161.489385 -27.655333 138.321848 -6.241250 -5.252393 -3.374232 -3.911616 -5.038210 33.803805 2.886073 14.960254 33.748430 0.473451 -15.197120 -12.889165 0.017400 0.850900 2.338700 9.570951 0.576692 1.825497 -17.579541 7.476640 -56.379028 -15.380029 -15.867040 77.102808 -0.901736 9.164082 -7.378358 -2.763200 10.301500 -29.958800 -2.722944 1.598359 21.686015 1.158627 -2.476008 0.835892 -3.977548 -2.753197 16.134668 -8.584601 -1.795395 -1.406891 19.620336 -9.750858 22.890811 5.590100 -4.657600 3.861400 -7.354198 -5.998338 2.397463 -18.389637 -56.804322 23.252299 53.210204 -58.628795 -27.862911 0.164091 1.046892 36.036954 60.303196 -19.557999 -32.865100 -7.125000 0.000000 0.000000 18.786900 -6.686100 -21.998500 8.670934 3.186416 4.425312 72.222408 -33.704386 32.848887 -15.276148 36.050031 -3.932480 -0.302643 -1.386240 0.374211 -13.593259 14.767991 -3.779500 7.125000 0.000000 0.000000 9.641000 -13.509800 7.227200 
1.166397 16.140460 0.136428 -161.588880 -27.503693 138.621230 -6.213712 -5.215931 -3.361979 -3.956431 -5.089716 33.482348 2.909666 14.997076 33.868312 0.502747 -14.998837 -13.197407 0.014500 0.776700 2.134600 9.491022 0.564780 1.826365 -16.886911 7.644019 -56.421348 -15.808009 -15.938691 78.431673 -0.914005 8.625607 -7.904141 -2.925800 10.574000 -30.856400 -2.761961 1.484007 21.726259 1.207804 -2.576003 0.799671 -3.739422 -2.854968 15.971252 -8.427100 -1.964029 -1.774825 19.285292 -9.733989 22.629331 5.443800 -4.616100 3.873600 -7.301504 -5.963375 2.162810 -19.646611 -56.529401 23.716418 53.926119 -58.752626 -28.393893 0.188247 1.065860 35.768849 59.894358 -19.129879 -31.985600 -7.125000 0.000000 0.000000 18.669900 -5.852400 -21.602700 8.685214 3.215652 4.500408 71.974117 -32.973812 32.384376 -15.462388 36.165520 -3.960904 -0.247257 -1.371449 0.782456 -12.258439 14.027808 -3.251000 7.125000 0.000000 0.000000 10.491800 -14.385900 7.688400 
1.176430 16.143506 0.147804 -161.792089 -27.253439 138.976659 -6.178449 -5.172112 -3.346001 -3.967085 -4.985910 33.143265 2.917440 15.014430 33.917813 0.520518 -14.845925 -13.377618 0.016600 0.831200 2.284300 9.387695 0.550974 1.817375 -16.117958 7.942107 -56.390832 -16.173141 -15.983059 79.525873 -0.928012 8.226161 -8.405994 -3.003200 10.700200 -31.275200 -2.810602 1.425121 21.762495 1.258070 -2.602819 0.768640 -3.462125 -2.931318 15.814252 -8.281583 -2.117225 -2.139077 18.976851 -9.707070 22.371141 5.305100 -4.569000 3.884300 -7.241558 -5.931212 1.915296 -21.033928 -56.228928 24.281544 54.652279 -58.854154 -28.927670 0.217078 1.086659 35.600213 59.498267 -18.708633 -31.141800 -7.125000 0.000000 0.000000 18.554200 -5.051000 -21.216400 8.697635 3.245176 4.581931 71.792157 -32.195659 31.681045 -15.601766 36.236328 -3.989653 -0.207058 -1.349939 1.274101 -11.117889 13.558248 -2.856300 7.125000 0.000000 0.000000 11.230200 -14.966400 8.108800 
1.184492 16.153360 0.163122 -162.071106 -26.986264 139.423757 -6.138036 -5.126653 -3.327830 -3.984747 -4.792908 32.723132 2.912219 15.010416 33.900417 0.532372 -14.696812 -13.491629 0.014700 0.784100 2.155000 9.282137 0.539203 1.807067 -15.324722 8.238345 -56.346108 -16.488304 -16.013224 80.446440 -0.947769 7.933366 -8.942277 -3.041800 10.762400 -31.482500 -2.876344 1.380145 21.744087 1.303951 -2.603689 0.732099 -3.179525 -2.991088 15.658029 -8.203130 -2.255491 -2.524566 18.726311 -9.694862 22.173485 5.198300 -4.530600 3.924600 -7.183167 -5.903487 1.668879 -22.439841 -55.867324 24.929473 55.434153 -58.946046 -29.495618 0.249384 1.108581 35.482657 59.074315 -18.243952 -30.229200 -7.125000 0.000000 0.000000 18.433500 -4.176500 -20.800300 8.705090 3.269467 4.661818 71.613395 -31.405910 30.953873 -15.731935 36.297056 -4.025207 -0.174585 -1.330618 1.678534 -10.195910 13.199905 -2.555800 7.125000 0.000000 0.000000 11.831800 -15.408400 8.447500 
1.191210 16.167961 0.181306 -162.416711 -26.716881 139.923950 -6.095251 -5.080712 -3.308555 -4.023634 -4.530081 32.257195 2.901593 14.996464 33.853112 0.538001 -14.570018 -13.536035 0.015800 0.811300 2.229700 9.179071 0.535061 1.794689 -14.509228 8.470475 -56.253476 -16.759471 -16.040959 81.221400 -0.970021 7.771221 -9.408538 -3.005100 10.703200 -31.285400 -2.977473 1.338220 21.705901 1.345786 -2.605119 0.695643 -2.896336 -3.054307 15.523137 -8.145834 -2.382119 -2.958164 18.473682 -9.673103 22.040107 5.094200 -4.484800 3.991900 -7.128620 -5.868894 1.438636 -23.759892 -55.422791 25.534781 56.286179 -59.033856 -30.116131 0.284667 1.130584 35.380962 58.615015 -17.774264 -29.284600 -7.125000 0.000000 0.000000 18.292500 -3.276800 -20.349700 8.706368 3.289082 4.741200 71.400969 -30.540407 30.302494 -15.782448 36.285808 -4.044058 -0.154871 -1.310681 2.028976 -9.552039 13.009048 -2.361700 7.125000 0.000000 0.000000 12.254000 -15.660500 8.695100 
1.196943 16.183816 0.200297 -162.827578 -26.418917 140.519897 -6.050702 -5.034250 -3.288540 -4.061450 -4.201875 31.686433 2.895585 14.989021 33.830059 0.543248 -14.475822 -13.591364 0.015000 0.790300 2.171900 9.082320 0.536417 1.783885 -13.677108 8.632368 -56.188822 -16.994944 -16.062736 81.877158 -1.000308 7.795896 -9.797563 -2.950300 10.614200 -30.989400 -3.102669 1.306558 21.587311 1.383255 -2.588326 0.657412 -2.616014 -3.107018 15.433394 -8.093380 -2.502333 -3.449350 18.217307 -9.643108 21.953783 4.988600 -4.431600 4.081100 -7.077750 -5.821750 1.236843 -24.922113 -54.969229 26.069304 57.042124 -59.083575 -30.665459 0.322622 1.150318 35.310350 58.110546 -17.467611 -28.494200 -7.125000 0.000000 0.000000 18.079200 -2.582500 -19.873800 8.704822 3.300998 4.814482 71.166939 -29.612097 29.699608 -15.785996 36.231531 -4.054232 -0.143364 -1.294007 2.323156 -9.136587 12.904719 -2.241500 7.125000 0.000000 0.000000 12.526600 -15.806900 8.857600 
1.203035 16.192326 0.218212 -163.285923 -26.100936 141.197870 -6.004885 -4.989651 -3.268191 -4.059292 -3.815021 30.967942 2.905725 15.005964 33.892222 0.544154 -14.470329 -13.630287 0.014500 0.777700 2.137400 8.990473 0.544367 1.774383 -12.799813 8.695835 -56.131785 -17.197289 -16.084987 82.422874 -1.036053 7.936786 -10.151795 -3.030100 10.743600 -31.420000 -3.242516 1.273927 21.415360 1.416702 -2.571479 0.616157 -2.350330 -3.154933 15.370299 -8.058562 -2.609513 -3.947602 17.985177 -9.607063 21.881368 4.895700 -4.377300 4.174200 -7.031974 -5.769624 1.068178 -25.920222 -54.470036 26.490278 57.712885 -59.104217 -31.159595 0.364342 1.164692 35.205129 57.637934 -17.511770 -28.149500 -7.125000 0.000000 0.000000 17.779600 -2.415200 -19.458800 8.695721 3.304172 4.879996 70.948004 -28.616845 29.088278 -15.750054 36.141371 -4.057115 -0.140514 -1.281229 2.581961 -8.911026 12.894925 -2.183300 7.125000 0.000000 0.000000 12.674100 -15.843200 8.957100 
1.210111 16.196895 0.237561 -163.794496 -25.755816 141.973243 -5.957803 -4.946118 -3.245395 -4.008172 -3.362736 30.070433 2.936395 15.053077 34.061175 0.538234 -14.579120 -13.630367 0.016900 0.840000 2.308800 8.907223 0.553083 1.771552 -11.918722 8.697846 -56.140957 -17.375706 -16.101024 82.889441 -1.080560 8.325622 -10.360561 -3.159800 10.949400 -32.109500 -3.384984 1.238585 21.208208 1.441895 -2.545707 0.555614 -2.111300 -3.181810 15.236740 -8.008772 -2.699690 -4.321385 17.736285 -9.558819 21.796953 4.801600 -4.327100 4.234700 -6.984847 -5.725882 0.919040 -26.881732 -53.892693 26.985439 58.298509 -59.080918 -31.585894 0.403820 1.176643 35.051948 57.275768 -17.612126 -27.974800 -7.125000 0.000000 0.000000 17.523500 -2.400100 -19.145200 8.677461 3.315101 4.938710 70.762341 -27.666742 28.501377 -15.710387 36.046394 -4.061513 -0.143622 -1.275976 2.833822 -8.877662 12.912171 -2.177300 7.125000 0.000000 0.000000 12.694700 -15.833100 8.975300 
